<svg width="76" height="33" viewBox="0 0 76 33" fill="none" xmlns="http://www.w3.org/2000/svg">
<path d="M32.4946 8.43102C30.1846 6.24373 27.6436 4.50131 24.6528 3.63628C20.3854 2.40052 15.7654 3.00604 11.7654 5.09447C7.97218 7.07168 3.53456 11.0137 3.04824 16.1669C2.70782 19.7506 4.20324 22.7164 6.45245 25.0025C13.0542 31.725 22.1848 31.3049 28.9324 25.225C36.0083 18.8608 40.4094 8.64109 48.9807 4.61253C53.7466 2.36345 58.9259 2.6971 63.6067 4.90911C67.2905 6.65153 71.7524 9.93864 72.7737 14.721C73.7099 19.0832 71.6187 23.223 68.7616 25.8923C61.7222 32.4665 52.5187 30.5758 45.9656 24.2734C41.224 19.7011 37.3821 13.0651 32.4946 8.43102Z" stroke="url(#paint0_linear_5_4)" stroke-width="5" stroke-miterlimit="10"/>
<defs>
<linearGradient id="paint0_linear_5_4" x1="2.69566" y1="16.5005" x2="73.3008" y2="16.5005" gradientUnits="userSpaceOnUse">
<stop stop-color="#50F7D3"/>
<stop offset="1" stop-color="#E821B0"/>
</linearGradient>
</defs>
</svg>
